<mxfile host="Electron" agent="Mozilla/5.0 (Macintosh; Intel Mac OS X 10_15_7) AppleWebKit/537.36 (KHTML, like Gecko) draw.io/26.1.1 Chrome/132.0.6834.210 Electron/34.3.3 Safari/537.36" version="26.1.1">
  <diagram name="Page-1" id="TtrW37iLMU1-nAWjF-xg">
    <mxGraphModel dx="1463" dy="540" grid="1" gridSize="10" guides="1" tooltips="1" connect="1" arrows="1" fold="1" page="1" pageScale="1" pageWidth="850" pageHeight="1100" math="1" shadow="0">
      <root>
        <mxCell id="0" />
        <mxCell id="1" parent="0" />
        <mxCell id="xOZJqGJgpGuwHBs6CzGs-1" value="\( \mu_\zeta \)" style="ellipse;whiteSpace=wrap;html=1;aspect=fixed;" parent="1" vertex="1">
          <mxGeometry x="240" y="190" width="50" height="50" as="geometry" />
        </mxCell>
        <mxCell id="xOZJqGJgpGuwHBs6CzGs-2" value="\( \tau_\zeta \)" style="ellipse;whiteSpace=wrap;html=1;aspect=fixed;" parent="1" vertex="1">
          <mxGeometry x="300" y="190" width="50" height="50" as="geometry" />
        </mxCell>
        <mxCell id="xOZJqGJgpGuwHBs6CzGs-3" value="\( \mu_\omega \)" style="ellipse;whiteSpace=wrap;html=1;aspect=fixed;" parent="1" vertex="1">
          <mxGeometry x="360" y="190" width="50" height="50" as="geometry" />
        </mxCell>
        <mxCell id="xOZJqGJgpGuwHBs6CzGs-4" value="\( \tau_\omega \)" style="ellipse;whiteSpace=wrap;html=1;aspect=fixed;" parent="1" vertex="1">
          <mxGeometry x="420" y="190" width="50" height="50" as="geometry" />
        </mxCell>
        <mxCell id="xOZJqGJgpGuwHBs6CzGs-5" value="\( \zeta \)" style="ellipse;whiteSpace=wrap;html=1;aspect=fixed;" parent="1" vertex="1">
          <mxGeometry x="270" y="260" width="50" height="50" as="geometry" />
        </mxCell>
        <mxCell id="xOZJqGJgpGuwHBs6CzGs-6" value="\( \omega \)" style="ellipse;whiteSpace=wrap;html=1;aspect=fixed;" parent="1" vertex="1">
          <mxGeometry x="390" y="260" width="50" height="50" as="geometry" />
        </mxCell>
        <mxCell id="xOZJqGJgpGuwHBs6CzGs-7" value="" style="endArrow=classic;html=1;rounded=0;exitX=0.5;exitY=1;exitDx=0;exitDy=0;entryX=0.262;entryY=0.035;entryDx=0;entryDy=0;entryPerimeter=0;" parent="1" target="xOZJqGJgpGuwHBs6CzGs-5" edge="1">
          <mxGeometry width="50" height="50" relative="1" as="geometry">
            <mxPoint x="270" y="240" as="sourcePoint" />
            <mxPoint x="288" y="270" as="targetPoint" />
          </mxGeometry>
        </mxCell>
        <mxCell id="xOZJqGJgpGuwHBs6CzGs-8" value="" style="endArrow=classic;html=1;rounded=0;exitX=0.316;exitY=0.958;exitDx=0;exitDy=0;exitPerimeter=0;entryX=0.724;entryY=0.058;entryDx=0;entryDy=0;entryPerimeter=0;" parent="1" source="xOZJqGJgpGuwHBs6CzGs-2" target="xOZJqGJgpGuwHBs6CzGs-5" edge="1">
          <mxGeometry width="50" height="50" relative="1" as="geometry">
            <mxPoint x="280" y="250" as="sourcePoint" />
            <mxPoint x="305" y="261" as="targetPoint" />
          </mxGeometry>
        </mxCell>
        <mxCell id="xOZJqGJgpGuwHBs6CzGs-9" value="" style="endArrow=classic;html=1;rounded=0;exitX=0.316;exitY=0.958;exitDx=0;exitDy=0;exitPerimeter=0;entryX=0.724;entryY=0.058;entryDx=0;entryDy=0;entryPerimeter=0;" parent="1" edge="1">
          <mxGeometry width="50" height="50" relative="1" as="geometry">
            <mxPoint x="440" y="240" as="sourcePoint" />
            <mxPoint x="430" y="265" as="targetPoint" />
          </mxGeometry>
        </mxCell>
        <mxCell id="xOZJqGJgpGuwHBs6CzGs-10" value="" style="endArrow=classic;html=1;rounded=0;exitX=0.5;exitY=1;exitDx=0;exitDy=0;entryX=0.262;entryY=0.035;entryDx=0;entryDy=0;entryPerimeter=0;" parent="1" edge="1">
          <mxGeometry width="50" height="50" relative="1" as="geometry">
            <mxPoint x="390" y="240" as="sourcePoint" />
            <mxPoint x="403" y="262" as="targetPoint" />
          </mxGeometry>
        </mxCell>
      </root>
    </mxGraphModel>
  </diagram>
</mxfile>
